<svg xmlns="http://www.w3.org/2000/svg" width="24" height="24" viewBox="0 0 24 24">
  <g id="Group_3176" data-name="Group 3176" transform="translate(-213 -396)">
    <path id="Path" d="M0,0H24V24H0Z" transform="translate(213 396)" fill="none"/>
    <path id="Path-2" data-name="Path" d="M0,0H24V24H0Z" transform="translate(213 396)" fill="none"/>
    <path id="Combined_Shape" data-name="Combined Shape" d="M10.141,14.833A10.4,10.4,0,0,1,4.214,12.96a12,12,0,0,1-4.1-5.022,1.282,1.282,0,0,1,0-1.043,12,12,0,0,1,4.1-5.022,10.314,10.314,0,0,1,11.853,0,12,12,0,0,1,4.1,5.022,1.282,1.282,0,0,1,0,1.043,12,12,0,0,1-4.1,5.022A10.4,10.4,0,0,1,10.141,14.833Zm0-13.118a9.242,9.242,0,0,0-8.265,5.7,9.243,9.243,0,0,0,8.265,5.7,9.245,9.245,0,0,0,8.266-5.7A9.245,9.245,0,0,0,10.141,1.715Zm0,9.081a3.518,3.518,0,0,1-3.634-3.38,3.518,3.518,0,0,1,3.634-3.381,3.518,3.518,0,0,1,3.634,3.381A3.518,3.518,0,0,1,10.141,10.8Zm0-5.045a1.733,1.733,0,0,0-1.79,1.665,1.733,1.733,0,0,0,1.79,1.665,1.733,1.733,0,0,0,1.79-1.665A1.733,1.733,0,0,0,10.141,5.751Z" transform="translate(215 400)"/>
  </g>
</svg>
