<svg xmlns="http://www.w3.org/2000/svg" width="24" height="24" viewBox="0 0 24 24">
  <g id="Group_3200" data-name="Group 3200" transform="translate(-316 -436)">
    <rect id="Rectangle_181" data-name="Rectangle 181" width="24" height="24" transform="translate(316 436)" fill="#abb3bb" opacity="0"/>
    <g id="Group_3199" data-name="Group 3199" transform="translate(19.23 17)">
      <path id="Group" d="M12,17.986a8.557,8.557,0,0,1-6.079-2.993A14.338,14.338,0,0,1,3.77,12,13.7,13.7,0,0,1,7.556,7.556l2.857,2.856a2.245,2.245,0,1,0,3.172,3.174l2.858,2.857A7.483,7.483,0,0,1,12,17.986Zm6.614-3.6h0L10.429,6.195a6.842,6.842,0,0,1,1.559-.18H12a8.559,8.559,0,0,1,6.079,2.992A14.344,14.344,0,0,1,20.23,12a13.9,13.9,0,0,1-1.616,2.386Z" transform="translate(297 419)" fill="none" stroke="#000" stroke-linecap="round" stroke-linejoin="round" stroke-width="1.5"/>
      <path id="Vector" d="M0,0,14,14" transform="translate(302 424)" fill="none" stroke="#000" stroke-linecap="round" stroke-linejoin="round" stroke-width="1.5"/>
    </g>
  </g>
</svg>
